<svg width="100" height="100" viewBox="0 0 100 100" fill="none" xmlns="http://www.w3.org/2000/svg">
<path d="M54.7831 70.5161L77.2817 70.283L83.6804 70.2167C85.2795 70.2001 85.2836 67.7136 83.6804 67.7302L61.1818 67.9633L54.7831 68.0296C53.184 68.0462 53.1799 70.5327 54.7831 70.5161Z" fill="white"/>
<path d="M17.5064 59.3299L12.1104 65.3787C16.5931 67.2802 21.1308 64.6405 22.9909 63.317C28.9971 66.6175 36.0351 67.5056 42.673 65.8008C49.3108 64.096 55.0498 59.9263 58.7222 54.1401C62.3947 48.3538 63.7246 41.3858 62.4416 34.6537C61.1585 27.9216 57.3588 21.9312 51.8155 17.9014C46.2723 13.8715 39.4019 12.105 32.6023 12.9612C25.8028 13.8174 19.5848 17.232 15.2136 22.5103C10.8424 27.7885 8.64637 34.5339 9.07231 41.3739C9.49825 48.2139 12.5142 54.6347 17.5064 59.3299V59.3299Z" fill="#A2A0A0"/>
<path d="M21.4292 35.2803C26.996 35.2223 32.5621 35.1228 38.1286 35.0471C39.9844 35.0219 41.8402 34.9998 43.696 34.9808C45.295 34.9642 45.2991 32.4777 43.696 32.4944C38.1292 32.5523 32.5631 32.6518 26.9966 32.7275C25.1409 32.7527 23.2851 32.7748 21.4292 32.7938C19.8302 32.8104 19.8261 35.2969 21.4292 35.2803Z" fill="white"/>
<path d="M21.4292 41.082L43.9279 40.8489L50.3266 40.7826C51.9256 40.766 51.9297 38.2795 50.3266 38.2961L27.8279 38.5292L21.4292 38.5955C19.8302 38.6121 19.8261 41.0986 21.4292 41.082Z" fill="white"/>
<path d="M21.4292 46.8838L43.9279 46.6507L50.3266 46.5844C51.9256 46.5679 51.9297 44.0813 50.3266 44.0979L27.8279 44.3311L21.4292 44.3974C19.8302 44.4139 19.8261 46.9005 21.4292 46.8838Z" fill="white"/>
<path d="M4.96024 70.6101C6.04286 70.6101 6.92049 69.7325 6.92049 68.6499C6.92049 67.5673 6.04286 66.6896 4.96024 66.6896C3.87763 66.6896 3 67.5673 3 68.6499C3 69.7325 3.87763 70.6101 4.96024 70.6101Z" fill="#A1A0A0"/>
<path d="M96.9472 60.3509C96.9449 54.4558 95.006 48.7247 91.4287 44.0391C87.8514 39.3535 82.8339 35.9728 77.1478 34.4171C71.4617 32.8613 65.422 33.2167 59.9575 35.4285C54.4931 37.6402 49.9066 41.5859 46.9034 46.6587C43.9002 51.7314 42.6467 57.6503 43.3357 63.505C44.0246 69.3597 46.6179 74.8259 50.7166 79.063C54.8153 83.3 60.1925 86.0732 66.0211 86.9561C71.8497 87.8389 77.8069 86.7825 82.9765 83.9493C84.8366 85.2727 89.3743 87.9125 93.857 86.011L88.461 79.9622C91.1434 77.4489 93.2808 74.4113 94.7406 71.0378C96.2004 67.6642 96.9515 64.0267 96.9472 60.3509Z" fill="#3B9DC0"/>
<path d="M56.2831 55.9125C61.8498 55.8545 67.4159 55.755 72.9824 55.6794C74.8382 55.6541 76.694 55.632 78.5498 55.6131C80.1488 55.5964 80.1529 53.1099 78.5498 53.1266C72.983 53.1845 67.417 53.2841 61.8504 53.3597C59.9947 53.3849 58.1389 53.407 56.2831 53.426C54.684 53.4426 54.6799 55.9292 56.2831 55.9125Z" fill="white"/>
<path d="M56.2831 61.7143L78.7817 61.4812L85.1804 61.4149C86.7795 61.3983 86.7836 58.9118 85.1804 58.9284L62.6818 59.1615L56.2831 59.2278C54.684 59.2444 54.6799 61.7309 56.2831 61.7143V61.7143Z" fill="white"/>
<path d="M56.4508 67.536L78.9495 67.3029L85.3482 67.2366C86.9472 67.22 86.9513 64.7335 85.3482 64.7501L62.8495 64.9832L56.4508 65.0495C54.8518 65.0661 54.8477 67.5526 56.4508 67.536Z" fill="white"/>
</svg>
