<svg width="470" height="398" viewBox="0 0 470 398" fill="none" xmlns="http://www.w3.org/2000/svg">
<g clip-path="url(#clip0)">
<path d="M220.801 397.802C323.298 397.802 406.388 393.508 406.388 388.212C406.388 382.916 323.298 378.623 220.801 378.623C118.304 378.623 35.2137 382.916 35.2137 388.212C35.2137 393.508 118.304 397.802 220.801 397.802Z" fill="#F2F2F2"/>
<path d="M329.229 92.9388H327.121V34.5789C327.121 25.6206 323.599 17.0293 317.33 10.6948C311.061 4.36038 302.559 0.801722 293.693 0.801712H171.328C162.463 0.801695 153.96 4.36033 147.691 10.6948C141.422 17.0292 137.901 25.6205 137.901 34.5788V354.746C137.901 363.704 141.422 372.296 147.691 378.63C153.96 384.965 162.463 388.523 171.328 388.523H293.693C302.558 388.523 311.061 384.965 317.33 378.63C323.599 372.296 327.121 363.704 327.121 354.746V134.48H329.229L329.229 92.9388Z" fill="#3F3D56"/>
<path d="M320.006 34.8146V354.511C320.006 361.201 317.375 367.617 312.694 372.348C308.012 377.078 301.662 379.736 295.041 379.736H172.09C165.469 379.736 159.119 377.078 154.437 372.348C149.755 367.617 147.125 361.201 147.125 354.511V34.8146C147.125 28.1244 149.755 21.7082 154.437 16.9775C159.119 12.2469 165.469 9.58913 172.09 9.589H187.005C186.272 11.4089 185.993 13.3828 186.192 15.3372C186.392 17.2916 187.063 19.1667 188.148 20.7973C189.232 22.4279 190.697 23.7643 192.413 24.6887C194.129 25.6131 196.043 26.0974 197.987 26.0988H268.089C270.033 26.0974 271.947 25.6131 273.663 24.6887C275.379 23.7642 276.844 22.4279 277.928 20.7973C279.013 19.1666 279.685 17.2916 279.884 15.3372C280.083 13.3828 279.804 11.4089 279.071 9.589H295.041C301.662 9.58913 308.012 12.2469 312.694 16.9775C317.375 21.7082 320.006 28.1244 320.006 34.8146Z" fill="white"/>
<path d="M280.397 172.666C279.579 173.098 278.748 173.506 277.903 173.891C277.133 174.243 276.351 174.573 275.557 174.882C275.266 174.994 274.971 175.106 274.676 175.218C272.342 176.073 269.944 176.741 267.506 177.216C266.298 177.455 265.075 177.644 263.836 177.78C262.813 177.898 261.78 177.981 260.736 178.031C259.993 178.068 259.249 178.084 258.5 178.084C255.536 178.085 252.577 177.805 249.664 177.248C248.905 177.109 248.161 176.944 247.418 176.763C243.822 175.892 240.341 174.594 237.047 172.895C236.752 172.746 236.457 172.586 236.161 172.432C235.724 172.197 235.297 171.952 234.87 171.696C235.075 171.409 235.297 171.126 235.523 170.849C237.991 167.76 241.074 165.231 244.574 163.426C248.073 161.622 251.909 160.583 255.832 160.376C259.756 160.17 263.678 160.802 267.344 162.23C271.009 163.658 274.336 165.851 277.107 168.665C278.068 169.64 278.96 170.684 279.774 171.787C279.99 172.075 280.196 172.368 280.397 172.666Z" fill="#3B9DC0"/>
<path d="M259.553 149.264C272.339 149.264 282.704 138.791 282.704 125.871C282.704 112.952 272.339 102.478 259.553 102.478C246.767 102.478 236.402 112.952 236.402 125.871C236.402 138.791 246.767 149.264 259.553 149.264Z" fill="#2F2E41"/>
<path d="M265.71 149.297C274.06 144.685 277.129 134.106 272.564 125.669C268 117.232 257.531 114.131 249.181 118.743C240.831 123.355 237.762 133.934 242.326 142.371C246.891 150.808 257.36 153.909 265.71 149.297Z" fill="#A0616A"/>
<path d="M275.551 123.069C271.613 125.811 266.94 127.27 262.158 127.251C263.864 128.446 265.806 129.253 267.85 129.617C261.492 130.995 254.921 131.033 248.548 129.727C247.131 129.497 245.764 129.023 244.507 128.325C243.88 127.971 243.335 127.488 242.905 126.907C242.475 126.327 242.171 125.661 242.013 124.954C241.589 122.509 243.475 120.289 245.434 118.792C248.433 116.535 251.891 114.98 255.559 114.24C259.226 113.499 263.01 113.592 266.637 114.51C269.006 115.129 271.379 116.174 272.917 118.096C274.456 120.018 274.911 122.981 273.445 124.961L275.551 123.069Z" fill="#2F2E41"/>
<path d="M258.5 82.1897C248.152 82.1881 238.087 85.6055 229.839 91.921C221.591 98.2365 215.613 107.104 212.815 117.171C210.018 127.238 210.555 137.954 214.344 147.684C218.134 157.415 224.968 165.626 233.805 171.068L234.111 171.249C234.364 171.403 234.617 171.553 234.87 171.696C235.297 171.952 235.724 172.197 236.161 172.432C236.457 172.586 236.752 172.746 237.047 172.895C240.341 174.594 243.822 175.892 247.418 176.763C248.161 176.944 248.905 177.109 249.664 177.248C252.577 177.805 255.536 178.085 258.5 178.084C259.249 178.084 259.993 178.068 260.736 178.031C261.78 177.983 262.813 177.899 263.836 177.78C265.075 177.642 266.298 177.454 267.506 177.216C269.944 176.741 272.342 176.073 274.676 175.218C274.971 175.106 275.266 174.994 275.557 174.882C276.353 174.573 277.135 174.243 277.903 173.891C278.746 173.508 279.578 173.099 280.397 172.666C288.604 168.323 295.388 161.666 299.925 153.503C299.946 153.461 299.973 153.418 299.994 153.375C302.415 148.986 304.132 144.237 305.082 139.305C306.416 132.362 306.214 125.207 304.49 118.352C302.767 111.497 299.565 105.112 295.113 99.6541C290.662 94.196 285.071 89.8 278.742 86.7807C272.412 83.7614 265.5 82.1937 258.5 82.1897H258.5ZM299.129 152.752C299.087 152.827 299.05 152.901 299.008 152.97C294.562 161.013 287.873 167.556 279.774 171.787C278.968 172.213 278.147 172.613 277.312 172.986C276.622 173.3 275.915 173.598 275.203 173.875C274.903 173.993 274.597 174.11 274.291 174.216C272.274 174.961 270.208 175.559 268.107 176.006C266.548 176.342 264.973 176.592 263.388 176.758C262.412 176.864 261.421 176.939 260.425 176.976C259.787 177.003 259.144 177.019 258.5 177.019C255.631 177.022 252.768 176.753 249.949 176.214C248.234 175.895 246.538 175.475 244.871 174.957C242.332 174.164 239.864 173.154 237.495 171.936C237.221 171.792 236.947 171.649 236.678 171.499C236.293 171.292 235.903 171.078 235.523 170.849C235.239 170.69 234.954 170.519 234.675 170.349C234.511 170.253 234.348 170.152 234.184 170.05C226.436 165.242 220.256 158.242 216.409 149.917C212.563 141.592 211.22 132.309 212.548 123.22C213.875 114.131 217.814 105.636 223.876 98.7887C229.938 91.9412 237.856 87.0427 246.648 84.7009C255.44 82.3591 264.719 82.6771 273.334 85.6155C281.948 88.5538 289.52 93.9832 295.109 101.23C300.697 108.477 304.058 117.222 304.772 126.381C305.487 135.54 303.525 144.71 299.129 152.752H299.129Z" fill="#3F3D56"/>
<path d="M247.828 102.801C247.579 100.155 244.37 98.5252 241.861 99.3247C239.352 100.124 237.705 102.677 237.207 105.288C236.967 106.387 236.945 107.524 237.141 108.632C237.337 109.74 237.747 110.798 238.348 111.746C239.617 113.59 241.947 114.742 244.121 114.273C246.603 113.739 248.322 111.29 248.814 108.775C249.306 106.259 248.817 103.666 248.33 101.15L247.828 102.801Z" fill="#2F2E41"/>
<path d="M283.144 106.582C282.895 103.936 279.686 102.306 277.177 103.106C274.668 103.905 273.02 106.458 272.522 109.069C272.283 110.168 272.26 111.305 272.456 112.413C272.652 113.521 273.063 114.579 273.664 115.527C274.932 117.371 277.263 118.522 279.437 118.054C281.918 117.52 283.638 115.071 284.129 112.556C284.621 110.04 284.133 107.447 283.645 104.931L283.144 106.582Z" fill="#2F2E41"/>
<path d="M176.482 149.299C176.153 149.299 175.829 149.229 175.529 149.095C175.228 148.96 174.959 148.764 174.738 148.519L148.576 119.68C148.279 119.353 147.918 119.092 147.516 118.914C147.115 118.735 146.681 118.643 146.242 118.642H7.99028C5.89223 118.64 3.88079 117.797 2.39724 116.297C0.91369 114.798 0.0792007 112.766 0.0768452 110.646V60.2681C0.0791994 58.1481 0.91369 56.1156 2.39724 54.6166C3.88079 53.1175 5.89223 52.2743 7.99028 52.2719H187.106C189.204 52.2743 191.215 53.1175 192.699 54.6166C194.182 56.1156 195.017 58.1481 195.019 60.2681V110.646C195.017 112.766 194.182 114.798 192.699 116.297C191.215 117.797 189.204 118.64 187.106 118.642H182.028C181.188 118.643 180.384 118.98 179.79 119.58C179.197 120.18 178.863 120.993 178.862 121.841V146.898C178.864 147.382 178.72 147.855 178.45 148.254C178.18 148.653 177.796 148.96 177.349 149.133C177.072 149.243 176.778 149.299 176.482 149.299Z" fill="white"/>
<path d="M176.482 149.299C176.153 149.299 175.829 149.229 175.529 149.095C175.228 148.96 174.959 148.764 174.738 148.519L148.576 119.68C148.279 119.353 147.918 119.092 147.516 118.914C147.115 118.735 146.681 118.643 146.242 118.642H7.99028C5.89223 118.64 3.88079 117.797 2.39724 116.297C0.91369 114.798 0.0792007 112.766 0.0768452 110.646V60.2681C0.0791994 58.1481 0.91369 56.1156 2.39724 54.6166C3.88079 53.1175 5.89223 52.2743 7.99028 52.2719H187.106C189.204 52.2743 191.215 53.1175 192.699 54.6166C194.182 56.1156 195.017 58.1481 195.019 60.2681V110.646C195.017 112.766 194.182 114.798 192.699 116.297C191.215 117.797 189.204 118.64 187.106 118.642H182.028C181.188 118.643 180.384 118.98 179.79 119.58C179.197 120.18 178.863 120.993 178.862 121.841V146.898C178.864 147.382 178.72 147.855 178.45 148.254C178.18 148.653 177.796 148.96 177.349 149.133C177.072 149.243 176.778 149.299 176.482 149.299ZM7.99028 53.3374C6.1718 53.3395 4.42839 54.0704 3.14253 55.3697C1.85666 56.669 1.13337 58.4306 1.13132 60.2681V110.646C1.13337 112.483 1.85667 114.245 3.14253 115.544C4.42839 116.844 6.1718 117.575 7.99028 117.577H146.242C146.827 117.577 147.405 117.701 147.941 117.939C148.476 118.177 148.957 118.524 149.353 118.959L175.515 147.799C175.695 147.997 175.93 148.135 176.189 148.196C176.448 148.257 176.719 148.238 176.966 148.14C177.214 148.043 177.427 147.872 177.577 147.651C177.727 147.429 177.807 147.167 177.807 146.898V121.841C177.809 120.711 178.254 119.627 179.045 118.827C179.836 118.028 180.909 117.578 182.028 117.577H187.106C188.924 117.575 190.668 116.844 191.954 115.544C193.239 114.245 193.963 112.483 193.965 110.646V60.2681C193.963 58.4306 193.239 56.669 191.954 55.3697C190.668 54.0704 188.924 53.3395 187.106 53.3374H7.99028Z" fill="#3F3D56"/>
<path d="M19.4876 74.4951C23.3119 74.4951 26.4122 71.3625 26.4122 67.4981C26.4122 63.6338 23.3119 60.5012 19.4876 60.5012C15.6632 60.5012 12.563 63.6338 12.563 67.4981C12.563 71.3625 15.6632 74.4951 19.4876 74.4951Z" fill="#3B9DC0"/>
<path d="M179.026 106.215H16.068C15.5826 106.215 15.1019 106.119 14.6533 105.932C14.2047 105.745 13.7971 105.47 13.4537 105.123C13.1103 104.777 12.8379 104.365 12.652 103.912C12.4661 103.459 12.3704 102.973 12.3704 102.483C12.3704 101.992 12.4661 101.507 12.652 101.054C12.8379 100.601 13.1103 100.189 13.4537 99.8426C13.7971 99.496 14.2047 99.2212 14.6533 99.0339C15.1019 98.8467 15.5826 98.7506 16.068 98.7512H179.026C180.005 98.7523 180.943 99.146 181.635 99.8457C182.326 100.545 182.715 101.494 182.715 102.483C182.715 103.472 182.326 104.42 181.635 105.12C180.943 105.82 180.005 106.213 179.026 106.215Z" fill="#E6E6E6"/>
<path d="M125.938 90.3548H16.068C15.5826 90.3554 15.1019 90.2593 14.6533 90.072C14.2047 89.8848 13.7971 89.61 13.4537 89.2634C13.1103 88.9168 12.8379 88.5053 12.652 88.0522C12.4661 87.5992 12.3704 87.1136 12.3704 86.6231C12.3704 86.1327 12.4661 85.6471 12.652 85.194C12.8379 84.741 13.1103 84.3294 13.4537 83.9828C13.7971 83.6363 14.2047 83.3615 14.6533 83.1742C15.1019 82.9869 15.5826 82.8908 16.068 82.8914H125.938C126.917 82.8914 127.857 83.2846 128.549 83.9844C129.242 84.6842 129.631 85.6334 129.631 86.6231C129.631 87.6128 129.242 88.562 128.549 89.2618C127.857 89.9617 126.917 90.3548 125.938 90.3548Z" fill="#E6E6E6"/>
<path d="M292.728 320.145C292.281 319.972 291.897 319.665 291.627 319.266C291.356 318.866 291.213 318.394 291.215 317.91V292.853C291.214 292.005 290.88 291.192 290.287 290.592C289.693 289.992 288.888 289.655 288.049 289.654H282.971C280.873 289.652 278.862 288.808 277.378 287.309C275.894 285.81 275.06 283.778 275.058 281.658V231.28C275.06 229.16 275.894 227.127 277.378 225.628C278.862 224.129 280.873 223.286 282.971 223.284H462.087C464.185 223.286 466.196 224.129 467.68 225.628C469.163 227.127 469.998 229.16 470 231.28V281.658C469.998 283.778 469.163 285.81 467.68 287.309C466.196 288.808 464.185 289.652 462.087 289.654H323.835C323.396 289.654 322.962 289.747 322.56 289.925C322.159 290.104 321.798 290.365 321.501 290.691L295.339 319.531C295.118 319.776 294.849 319.972 294.548 320.107C294.248 320.241 293.923 320.31 293.595 320.311C293.298 320.31 293.004 320.254 292.728 320.145Z" fill="white"/>
<path d="M292.728 320.145C292.281 319.972 291.897 319.665 291.627 319.266C291.356 318.866 291.213 318.394 291.215 317.91V292.853C291.214 292.005 290.88 291.192 290.287 290.592C289.693 289.992 288.888 289.655 288.049 289.654H282.971C280.873 289.652 278.862 288.808 277.378 287.309C275.894 285.81 275.06 283.778 275.058 281.658V231.28C275.06 229.16 275.894 227.127 277.378 225.628C278.862 224.129 280.873 223.286 282.971 223.284H462.087C464.185 223.286 466.196 224.129 467.68 225.628C469.163 227.127 469.998 229.16 470 231.28V281.658C469.998 283.778 469.163 285.81 467.68 287.309C466.196 288.808 464.185 289.652 462.087 289.654H323.835C323.396 289.654 322.962 289.747 322.56 289.925C322.159 290.104 321.798 290.365 321.501 290.691L295.339 319.531C295.118 319.776 294.849 319.972 294.548 320.107C294.248 320.241 293.923 320.31 293.595 320.311C293.298 320.31 293.004 320.254 292.728 320.145ZM282.971 224.349C281.153 224.351 279.409 225.082 278.123 226.381C276.837 227.681 276.114 229.442 276.112 231.28V281.658C276.114 283.495 276.837 285.257 278.123 286.556C279.409 287.855 281.153 288.586 282.971 288.588H288.049C289.168 288.59 290.241 289.039 291.032 289.839C291.823 290.638 292.268 291.722 292.269 292.853V317.91C292.269 318.178 292.35 318.441 292.5 318.662C292.65 318.884 292.863 319.055 293.111 319.152C293.358 319.25 293.629 319.269 293.888 319.208C294.147 319.147 294.382 319.009 294.561 318.811L320.724 289.971C321.12 289.536 321.6 289.188 322.136 288.95C322.671 288.712 323.25 288.589 323.835 288.588H462.087C463.905 288.586 465.648 287.855 466.934 286.556C468.22 285.257 468.943 283.495 468.945 281.658V231.28C468.943 229.442 468.22 227.681 466.934 226.381C465.648 225.082 463.905 224.351 462.087 224.349H282.971Z" fill="#3F3D56"/>
<path d="M236.9 335.745C229.554 340.498 221.044 343.089 212.323 343.23C203.602 343.37 195.015 341.053 187.524 336.539C188.842 334.06 190.511 331.79 192.48 329.8C195.518 326.716 199.214 324.377 203.286 322.962C207.358 321.547 211.697 321.094 215.969 321.637C220.241 322.181 224.333 323.707 227.93 326.098C231.528 328.49 234.535 331.682 236.72 335.431C236.778 335.532 236.842 335.639 236.9 335.745Z" fill="#3B9DC0"/>
<path d="M210.15 310.269C223.021 310.269 233.455 299.726 233.455 286.721C233.455 273.716 223.021 263.173 210.15 263.173C197.279 263.173 186.846 273.716 186.846 286.721C186.846 299.726 197.279 310.269 210.15 310.269Z" fill="#2F2E41"/>
<path d="M227.491 303.33C232.086 294.837 228.997 284.188 220.591 279.545C212.186 274.902 201.647 278.024 197.052 286.517C192.457 295.01 195.546 305.659 203.952 310.302C212.357 314.945 222.896 311.824 227.491 303.33Z" fill="#FFB8B8"/>
<path d="M194.046 283.9C198.01 286.66 202.714 288.129 207.528 288.11C205.811 289.313 203.856 290.126 201.798 290.492C208.198 291.879 214.813 291.917 221.228 290.602C222.655 290.371 224.03 289.893 225.296 289.19C225.927 288.835 226.476 288.349 226.909 287.764C227.341 287.179 227.647 286.509 227.807 285.798C228.233 283.337 226.335 281.101 224.363 279.594C221.344 277.323 217.863 275.757 214.171 275.012C210.48 274.267 206.67 274.36 203.019 275.285C200.634 275.907 198.246 276.96 196.697 278.894C195.148 280.829 194.69 283.812 196.165 285.804L194.046 283.9Z" fill="#2F2E41"/>
<path d="M211.576 343.768C200.163 343.765 189.134 339.603 180.511 332.047C171.889 324.491 166.252 314.047 164.634 302.631C163.016 291.215 165.525 279.592 171.703 269.894C177.88 260.197 187.31 253.074 198.264 249.834C209.217 246.594 220.96 247.453 231.338 252.254C241.715 257.055 250.032 265.475 254.762 275.971C259.492 286.466 260.319 298.333 257.09 309.395C253.862 320.457 246.794 329.971 237.185 336.193C229.543 341.145 220.654 343.774 211.576 343.768ZM211.576 248.939C202.399 248.939 193.427 251.688 185.796 256.839C178.164 261.991 172.216 269.314 168.704 277.881C165.191 286.449 164.272 295.876 166.062 304.972C167.852 314.067 172.272 322.422 178.761 328.979C185.251 335.537 193.519 340.002 202.521 341.811C211.522 343.62 220.852 342.691 229.331 339.142C237.81 335.593 245.057 329.583 250.155 321.871C255.253 314.16 257.974 305.095 257.973 295.821C257.959 283.392 253.067 271.475 244.369 262.686C235.67 253.897 223.877 248.954 211.576 248.939Z" fill="#3F3D56"/>
<path d="M297.341 244.974C301.166 244.974 304.266 241.841 304.266 237.977C304.266 234.113 301.166 230.98 297.341 230.98C293.517 230.98 290.417 234.113 290.417 237.977C290.417 241.841 293.517 244.974 297.341 244.974Z" fill="#3B9DC0"/>
<path d="M456.881 276.694H293.923C293.437 276.694 292.956 276.598 292.508 276.411C292.059 276.224 291.652 275.949 291.308 275.602C290.965 275.256 290.692 274.844 290.507 274.391C290.321 273.938 290.225 273.452 290.225 272.962C290.225 272.471 290.321 271.986 290.507 271.533C290.692 271.08 290.965 270.668 291.308 270.322C291.652 269.975 292.059 269.7 292.508 269.513C292.956 269.326 293.437 269.23 293.923 269.23H456.881C457.86 269.23 458.8 269.623 459.492 270.323C460.185 271.023 460.574 271.972 460.574 272.962C460.574 273.952 460.185 274.901 459.492 275.601C458.8 276.3 457.86 276.694 456.881 276.694Z" fill="#E6E6E6"/>
<path d="M403.792 260.834H293.923C293.437 260.834 292.956 260.738 292.508 260.551C292.059 260.364 291.652 260.089 291.308 259.742C290.965 259.396 290.692 258.984 290.507 258.531C290.321 258.078 290.225 257.593 290.225 257.102C290.225 256.612 290.321 256.126 290.507 255.673C290.692 255.22 290.965 254.808 291.308 254.462C291.652 254.115 292.059 253.841 292.508 253.653C292.956 253.466 293.437 253.37 293.923 253.37H403.792C404.771 253.372 405.709 253.765 406.401 254.465C407.093 255.165 407.481 256.113 407.481 257.102C407.481 258.091 407.093 259.04 406.401 259.739C405.709 260.439 404.771 260.833 403.792 260.834Z" fill="#E6E6E6"/>
<path d="M292.505 324.915C299.64 324.915 305.424 324.266 305.424 323.466C305.424 322.666 299.64 322.017 292.505 322.017C285.37 322.017 279.586 322.666 279.586 323.466C279.586 324.266 285.37 324.915 292.505 324.915Z" fill="#F2F2F2"/>
<path d="M177.04 154.436C184.176 154.436 189.96 153.787 189.96 152.987C189.96 152.186 184.176 151.538 177.04 151.538C169.905 151.538 164.121 152.186 164.121 152.987C164.121 153.787 169.905 154.436 177.04 154.436Z" fill="#F2F2F2"/>
</g>
<defs>
<clipPath id="clip0">
<rect width="469.923" height="397" fill="white" transform="translate(0.0768433 0.801712)"/>
</clipPath>
</defs>
</svg>
